<?xml version="1.0" standalone="no"?>
<!DOCTYPE svg PUBLIC "-//W3C//DTD SVG 20010904//EN"
 "http://www.w3.org/TR/2001/REC-SVG-20010904/DTD/svg10.dtd">
<svg version="1.0" xmlns="http://www.w3.org/2000/svg"
 width="500.000000pt" height="500.000000pt" viewBox="0 0 500.000000 500.000000"
 preserveAspectRatio="xMidYMid meet">
<metadata>
Created by potrace 1.14, written by Peter Selinger 2001-2017
</metadata>
<g transform="translate(0.000000,500.000000) scale(0.100000,-0.100000)"
fill="#000000" stroke="none">
<path d="M1987 3662 c-31 -32 -57 -66 -57 -77 0 -18 240 -271 279 -295 15 -9
61 7 61 21 0 5 13 15 30 24 24 12 69 15 225 16 202 1 214 -1 256 -43 38 -38
47 -33 176 94 69 68 134 135 145 151 19 27 19 27 -1 60 -29 47 -98 107 -124
107 -15 0 -55 -33 -122 -101 -55 -55 -111 -105 -125 -111 -14 -5 -109 -10
-213 -10 -220 0 -200 -8 -335 128 -62 63 -100 94 -115 94 -14 0 -44 -22 -80
-58z"/>
<path d="M1719 3401 c-32 -32 -59 -67 -59 -78 0 -10 43 -61 96 -113 53 -52
103 -111 113 -131 14 -30 16 -67 16 -220 -1 -133 -5 -191 -15 -209 -7 -13 -57
-70 -111 -125 -55 -55 -99 -108 -99 -118 0 -25 113 -137 139 -137 21 0 286
257 295 287 4 11 -4 30 -20 48 -14 17 -30 40 -35 53 -5 13 -9 107 -9 209 0
149 3 191 16 219 9 19 20 34 25 34 18 0 30 39 19 61 -22 40 -271 279 -291 279
-11 0 -47 -27 -80 -59z"/>
<path d="M3082 3316 c-154 -154 -153 -152 -105 -209 13 -16 26 -39 29 -51 3
-12 4 -108 2 -212 l-3 -189 -30 -39 c-17 -23 -28 -48 -27 -60 2 -12 66 -83
142 -158 108 -107 143 -135 159 -131 27 7 131 117 131 140 0 10 -45 63 -101
119 -63 63 -105 114 -112 136 -9 24 -12 97 -12 216 2 211 -6 193 132 331 51
51 93 101 93 112 0 22 -117 139 -140 139 -9 0 -80 -65 -158 -144z"/>
<path d="M2321 3173 c-24 -30 -20 -58 11 -85 20 -18 20 -18 -5 -18 -31 0 -33
-3 -41 -60 -24 -188 -24 -215 -2 -239 15 -16 14 -17 -14 -13 -17 2 -30 7 -31
11 0 3 -2 13 -3 21 -3 15 -10 63 -22 168 -5 36 -11 52 -22 52 -15 0 -14 -54 4
-185 12 -93 19 -110 44 -111 14 -1 31 -2 38 -3 8 -1 12 -26 12 -91 0 -87 1
-90 23 -90 21 0 22 3 22 92 l0 92 55 0 55 0 -3 -75 c-2 -58 1 -79 12 -88 21
-18 56 -4 57 22 1 12 2 38 4 57 13 177 10 186 -70 192 -45 3 -50 6 -51 28 0
14 3 39 6 55 l6 30 14 -32 c14 -32 25 -37 62 -34 12 2 15 -4 11 -19 -6 -22 -6
-22 54 -24 23 -1 45 -5 48 -8 4 -3 -10 -57 -29 -120 -41 -131 -42 -134 -18
-147 22 -12 242 -12 265 0 15 9 17 26 17 145 0 123 2 135 18 132 11 -2 17 3
17 17 0 18 -7 20 -67 20 -62 0 -67 2 -63 20 19 82 22 106 15 110 -11 7 -18 -4
-24 -38 -9 -51 -18 -68 -34 -66 -49 4 -84 -2 -79 -14 3 -8 0 -14 -7 -14 -8 0
-11 9 -8 23 3 18 -1 24 -21 29 -13 4 -31 6 -38 5 -59 -9 -68 -2 -100 70 -25
54 -37 70 -53 71 l-21 0 22 11 c26 13 47 59 39 86 -6 19 -45 42 -71 42 -7 0
-23 -12 -34 -27z m467 -378 c9 -9 9 -178 0 -197 -7 -14 -23 -16 -105 -15 -84
2 -98 4 -101 19 -6 31 50 197 67 200 25 6 132 0 139 -7z"/>
<path d="M2059 2301 c-122 -121 -140 -143 -134 -163 11 -35 110 -128 137 -128
16 0 52 29 118 96 52 53 109 102 127 110 38 16 375 20 415 5 14 -5 69 -55 124
-110 72 -74 105 -101 124 -101 31 0 140 105 140 135 0 26 -268 295 -294 295
-10 0 -31 -11 -48 -25 -43 -36 -85 -43 -274 -41 -165 2 -174 3 -208 27 -20 13
-36 27 -36 32 0 4 -12 7 -26 7 -19 0 -58 -33 -165 -139z"/>
<path d="M2800 1795 c0 -21 5 -25 28 -25 23 0 28 4 28 25 0 21 -5 25 -28 25
-23 0 -28 -4 -28 -25z"/>
<path d="M2947 1808 c-16 -12 -23 -29 -26 -60 -1 -5 -8 -8 -16 -8 -8 0 -15 -9
-15 -20 0 -11 7 -20 15 -20 16 0 17 -5 17 -92 0 -56 1 -58 27 -58 27 0 27 1
26 63 -2 78 2 87 30 87 18 0 22 4 18 20 -5 18 -22 25 -47 21 -5 -1 -6 5 -2 14
3 9 6 19 6 21 0 2 11 4 24 4 17 0 24 5 22 18 -3 22 -54 28 -79 10z"/>
<path d="M1774 1797 c-8 -4 -14 -17 -14 -27 0 -16 7 -20 35 -20 39 0 38 3 35
-137 l-1 -63 29 0 30 0 0 88 c0 48 1 93 1 100 1 7 15 12 36 12 29 0 35 4 35
20 0 11 -6 23 -13 26 -23 8 -158 9 -173 1z"/>
<path d="M2033 1740 c-78 -32 -63 -186 19 -191 10 -1 24 -2 31 -3 17 -3 61 19
77 39 22 27 -6 36 -53 18 -37 -15 -40 -15 -60 6 l-21 21 24 1 c14 1 49 1 78 0
59 0 63 7 37 64 -24 48 -77 67 -132 45z m85 -57 c2 -9 -10 -13 -43 -13 -42 0
-46 2 -35 16 15 18 71 15 78 -3z"/>
<path d="M2241 1724 c-38 -32 -49 -80 -27 -122 20 -39 48 -55 95 -52 20 1 51
1 69 1 36 -1 33 -11 34 115 0 50 -4 69 -15 76 -9 5 -18 4 -22 -1 -4 -7 -15 -7
-31 -1 -41 16 -71 12 -103 -16z m111 -47 c28 -42 -26 -100 -67 -73 -27 18 -32
66 -8 83 20 15 63 9 75 -10z"/>
<path d="M2469 1747 c-1 -1 -2 -46 -3 -99 l-2 -98 27 0 c25 0 26 2 28 57 1 74
8 93 31 93 27 0 37 -26 35 -92 -2 -57 -1 -58 25 -58 27 0 27 1 26 54 -2 73 8
98 36 94 21 -3 23 -9 26 -75 3 -72 3 -73 30 -73 28 0 28 1 26 58 -2 96 -3 101
-26 122 -25 23 -43 25 -79 6 -22 -11 -29 -11 -44 0 -25 18 -60 18 -75 -1 -10
-12 -15 -13 -21 -4 -6 10 -36 22 -40 16z"/>
<path d="M2807 1742 c-2 -4 -5 -49 -5 -99 l-1 -93 27 0 28 0 -2 93 c-1 50 -2
94 -3 97 -2 8 -40 10 -44 2z"/>
<path d="M3030 1745 c0 -1 11 -23 24 -51 13 -27 31 -66 40 -86 21 -43 14 -75
-17 -80 -14 -2 -23 -11 -25 -25 -3 -19 1 -23 26 -23 36 0 62 28 97 105 72 158
72 156 36 162 -19 3 -27 -10 -54 -82 l-16 -40 -26 61 c-24 54 -30 60 -56 60
-16 0 -29 0 -29 -1z"/>
</g>
</svg>
